<?xml version="1.0" standalone="no"?>
<!DOCTYPE svg PUBLIC "-//W3C//DTD SVG 20010904//EN"
 "http://www.w3.org/TR/2001/REC-SVG-20010904/DTD/svg10.dtd">
<svg version="1.0" xmlns="http://www.w3.org/2000/svg"
 width="152.000000pt" height="152.000000pt" viewBox="0 0 152.000000 152.000000"
 preserveAspectRatio="xMidYMid meet">
<metadata>
Created by potrace 1.15, written by Peter Selinger 2001-2017
</metadata>
<g transform="translate(0.000000,152.000000) scale(0.100000,-0.100000)"
fill="#000000" stroke="none">
<path d="M0 760 l0 -760 760 0 760 0 0 760 0 760 -760 0 -760 0 0 -760z m916
710 c133 -34 236 -91 329 -184 145 -144 205 -281 213 -481 5 -145 -11 -223
-68 -340 -121 -249 -357 -395 -635 -395 -135 0 -214 18 -325 72 -118 58 -248
187 -309 305 -171 335 -66 729 250 933 156 101 365 135 545 90z"/>
<path d="M640 1403 c-184 -31 -367 -167 -448 -334 -54 -109 -72 -183 -72 -294
0 -175 60 -316 189 -446 123 -123 270 -183 446 -182 177 0 313 58 440 187 44
44 92 104 107 131 l27 50 -209 -3 -208 -3 -21 27 c-20 26 -21 37 -21 301 0
319 3 332 77 333 22 0 38 -8 52 -26 20 -25 21 -39 21 -270 l0 -244 143 0 c154
0 168 -5 179 -55 6 -28 26 41 38 133 17 126 -14 271 -80 388 -86 150 -259 272
-429 304 -52 10 -181 11 -231 3z m-28 -249 c53 -17 122 -73 143 -115 17 -33
19 -82 5 -110 -8 -14 -21 -19 -50 -19 -36 0 -41 4 -64 43 -42 72 -69 90 -134
94 -71 5 -111 -17 -144 -79 -19 -36 -23 -58 -23 -138 0 -81 3 -101 23 -136 32
-54 67 -74 135 -74 46 0 61 5 88 27 17 15 38 43 46 63 21 49 42 70 72 70 84
-1 89 -104 10 -194 -52 -59 -123 -89 -214 -89 -187 -1 -303 114 -313 309 -9
173 65 300 205 350 52 18 159 17 215 -2z"/>
</g>
</svg>
